<?xml version="1.0" encoding="UTF-8"?>
<!DOCTYPE svg PUBLIC "-//W3C//DTD SVG 1.1//EN" "http://www.w3.org/Graphics/SVG/1.1/DTD/svg11.dtd">
<svg xmlns="http://www.w3.org/2000/svg" version="1.1" width="152px" height="111px" style="shape-rendering:geometricPrecision; text-rendering:geometricPrecision; image-rendering:optimizeQuality; fill-rule:evenodd; clip-rule:evenodd" xmlns:xlink="http://www.w3.org/1999/xlink">
<g><path style="opacity:1" fill="#fbfafb" d="M -0.5,-0.5 C 50.1667,-0.5 100.833,-0.5 151.5,-0.5C 151.5,36.5 151.5,73.5 151.5,110.5C 100.833,110.5 50.1667,110.5 -0.5,110.5C -0.5,73.5 -0.5,36.5 -0.5,-0.5 Z"/></g>
<g><path style="opacity:1" fill="#9d9d9d" d="M 56.5,68.5 C 51.5515,60.2229 46.2181,52.2229 40.5,44.5C 36.1771,37.8617 31.8438,31.195 27.5,24.5C 28.6729,22.4827 30.1729,21.816 32,22.5C 45,41.8333 58,61.1667 71,80.5C 72.8259,82.0738 74.9925,82.9071 77.5,83C 83.2194,86.5922 83.8861,90.9255 79.5,96C 74.3864,98.7929 70.553,97.6263 68,92.5C 67.7468,89.7996 67.7468,87.133 68,84.5C 64.3902,78.9231 60.5568,73.5898 56.5,68.5 Z"/></g>
<g><path style="opacity:1" fill="#d5d5d6" d="M 68.5,22.5 C 105.497,22.6688 129.663,40.3355 141,75.5C 142.05,80.4482 142.55,85.4482 142.5,90.5C 141.5,90.5 140.5,90.5 139.5,90.5C 139.069,65.7987 128.402,46.9653 107.5,34C 86.3574,22.9987 65.1908,22.8321 44,33.5C 43.3076,32.9747 42.8076,32.3081 42.5,31.5C 50.7083,26.8761 59.375,23.8761 68.5,22.5 Z"/></g>
<g><path style="opacity:1" fill="#d0d2d4" d="M 66.5,31.5 C 100.746,30.2665 122.913,45.9332 133,78.5C 133.499,82.4862 133.666,86.4862 133.5,90.5C 123.833,90.5 114.167,90.5 104.5,90.5C 103.343,74.0058 94.6765,64.1724 78.5,61C 73.3987,60.599 68.3987,60.9323 63.5,62C 57.777,54.6093 52.4436,46.9426 47.5,39C 53.3968,35.2049 59.7302,32.7049 66.5,31.5 Z"/></g>
<g><path style="opacity:1" fill="#f2fcf5" d="M 23.5,60.5 C 25.3933,54.178 29.0599,49.0113 34.5,45C 36.4727,44.5045 38.4727,44.3379 40.5,44.5C 46.2181,52.2229 51.5515,60.2229 56.5,68.5C 51.1592,75.2034 47.8258,82.8701 46.5,91.5C 36.5222,92.4985 26.5222,92.8319 16.5,92.5C 16.6495,93.552 16.4828,94.552 16,95.5C 15.6667,95.1667 15.3333,94.8333 15,94.5C 14.7264,86.792 15.2264,79.1254 16.5,71.5C 15.5,71.5 14.5,71.5 13.5,71.5C 12.3922,78.0843 11.5589,84.751 11,91.5C 9.06236,92.8602 7.39569,92.5268 6,90.5C 5.25487,86.5521 5.75487,82.8855 7.5,79.5C 7.5,83.1667 7.5,86.8333 7.5,90.5C 8.5,90.5 9.5,90.5 10.5,90.5C 10.6921,70.2812 18.3588,53.4478 33.5,40C 33,39.5 32.5,39 32,38.5C 31.1841,39.8228 30.0174,40.4894 28.5,40.5C 30.3362,35.3925 32.6695,35.2258 35.5,40C 30.8383,45.8629 25.8383,51.5296 20.5,57C 21.3081,57.3076 21.9747,57.8076 22.5,58.5C 19.8164,61.1365 20.1497,61.8032 23.5,60.5 Z"/></g>
<g><path style="opacity:1" fill="#84c99c" d="M 40.5,51.5 C 44.8118,57.4328 49.1452,63.4328 53.5,69.5C 49.7678,74.2977 47.1012,79.631 45.5,85.5C 44.596,86.209 44.2627,87.209 44.5,88.5C 35.5,88.5 26.5,88.5 17.5,88.5C 17.4187,81.6218 18.4187,74.9551 20.5,68.5C 20.3284,67.5084 20.6618,66.8417 21.5,66.5C 24.304,62.9087 26.6374,58.9087 28.5,54.5C 31.4551,53.0424 33.9551,51.0424 36,48.5C 37.6434,49.3146 39.1434,50.3146 40.5,51.5 Z"/></g>
<g><path style="opacity:1" fill="#94c8a6" d="M 40.5,51.5 C 39.1434,50.3146 37.6434,49.3146 36,48.5C 33.9551,51.0424 31.4551,53.0424 28.5,54.5C 30.4525,50.7129 33.2858,47.7129 37,45.5C 38.4424,47.3911 39.6091,49.3911 40.5,51.5 Z"/></g>
<g><path style="opacity:1" fill="#96c9a8" d="M 28.5,54.5 C 26.6374,58.9087 24.304,62.9087 21.5,66.5C 22.1667,64.5 22.8333,62.5 23.5,60.5C 25.1667,58.5 26.8333,56.5 28.5,54.5 Z"/></g>
<g><path style="opacity:1" fill="#9ac8ab" d="M 7.5,79.5 C 11.0726,64.6901 18.0726,51.6901 28.5,40.5C 30.0174,40.4894 31.1841,39.8228 32,38.5C 32.5,39 33,39.5 33.5,40C 18.3588,53.4478 10.6921,70.2812 10.5,90.5C 9.5,90.5 8.5,90.5 7.5,90.5C 7.5,86.8333 7.5,83.1667 7.5,79.5 Z"/></g>
<g><path style="opacity:1" fill="#96caa8" d="M 20.5,68.5 C 18.4187,74.9551 17.4187,81.6218 17.5,88.5C 26.5,88.5 35.5,88.5 44.5,88.5C 44.2627,87.209 44.596,86.209 45.5,85.5C 45.5,87.1667 45.5,88.8333 45.5,90.5C 35.8333,90.5 26.1667,90.5 16.5,90.5C 15.6556,82.6263 16.9889,75.293 20.5,68.5 Z"/></g>
</svg>
