<svg width="56" height="56" viewBox="0 0 56 56" fill="none" xmlns="http://www.w3.org/2000/svg">
<path d="M47.8093 8.19365C36.8858 -2.73078 19.1135 -2.73077 8.19209 8.19101C-2.7314 19.1128 -2.73035 36.8854 8.19315 47.8093C19.1135 58.7306 36.8858 58.7306 47.8082 47.8072C58.7307 36.8854 58.7301 19.1138 47.8093 8.19365ZM44.7526 44.7527C35.5156 53.9896 20.4852 53.9907 11.2477 44.7538C2.00856 35.5153 2.00961 20.4835 11.2477 11.2466C20.4847 2.01018 35.5146 2.00913 44.7537 11.2476C53.9907 20.4845 53.9897 35.5163 44.7526 44.7527ZM17.5511 20.4185C17.5511 18.6107 19.0174 17.1444 20.8253 17.1444C22.6327 17.1444 24.099 18.6101 24.099 20.4185C24.099 22.2275 22.6327 23.6932 20.8253 23.6932C19.0174 23.6932 17.5511 22.2275 17.5511 20.4185ZM32.3972 20.4185C32.3972 18.6107 33.8645 17.1444 35.6724 17.1444C37.4798 17.1444 38.9461 18.6101 38.9461 20.4185C38.9461 22.2275 37.4803 23.6932 35.6724 23.6932C33.8645 23.6932 32.3972 22.2275 32.3972 20.4185ZM40.1378 33.8283C38.1087 38.5207 33.3566 41.5525 28.0321 41.5525C22.5931 41.5525 17.813 38.5054 15.8541 33.7892C15.5182 32.9819 15.9011 32.0547 16.7094 31.7189C16.908 31.6371 17.1139 31.598 17.3167 31.598C17.9376 31.598 18.5269 31.965 18.7798 32.5748C20.2461 36.105 23.8777 38.385 28.0321 38.385C32.0925 38.385 35.7031 36.1035 37.2301 32.5711C37.5775 31.768 38.51 31.3979 39.3125 31.7458C40.1151 32.0938 40.4853 33.0257 40.1378 33.8283Z" fill="#8AC9FE"/>
</svg>
