<?xml version="1.0" encoding="UTF-8"?>
<!DOCTYPE svg PUBLIC "-//W3C//DTD SVG 1.1//EN" "http://www.w3.org/Graphics/SVG/1.1/DTD/svg11.dtd">
<svg xmlns="http://www.w3.org/2000/svg" version="1.1" width="158px" height="114px" style="shape-rendering:geometricPrecision; text-rendering:geometricPrecision; image-rendering:optimizeQuality; fill-rule:evenodd; clip-rule:evenodd" xmlns:xlink="http://www.w3.org/1999/xlink">
<g><path style="opacity:1" fill="#fbfafb" d="M -0.5,-0.5 C 52.1667,-0.5 104.833,-0.5 157.5,-0.5C 157.5,37.5 157.5,75.5 157.5,113.5C 104.833,113.5 52.1667,113.5 -0.5,113.5C -0.5,75.5 -0.5,37.5 -0.5,-0.5 Z"/></g>
<g><path style="opacity:1" fill="#ed554a" d="M 58.5,32.5 C 58.8333,32.5 59.1667,32.5 59.5,32.5C 67.5246,32.3903 75.5246,32.7237 83.5,33.5C 102.628,37.9575 115.961,49.2908 123.5,67.5C 125.039,72.3457 125.706,77.3457 125.5,82.5C 116.5,82.5 107.5,82.5 98.5,82.5C 98.6138,79.784 97.6138,77.784 95.5,76.5C 92.8782,72.5428 89.8782,68.8761 86.5,65.5C 83.9867,62.5688 80.6533,61.2355 76.5,61.5C 56.8222,58.9916 44.8222,67.325 40.5,86.5C 39.6618,86.8417 39.3284,87.5084 39.5,88.5C 30.5,88.5 21.5,88.5 12.5,88.5C 12.991,81.4098 13.991,74.4098 15.5,67.5C 16.9166,62.3212 19.5832,57.9879 23.5,54.5C 28.1927,50.1386 32.8594,45.8052 37.5,41.5C 40.0078,39.0764 43.0078,37.4097 46.5,36.5C 50.767,35.7444 54.767,34.411 58.5,32.5 Z"/></g>
<g><path style="opacity:1" fill="#fef3f1" d="M 136.5,82.5 C 137.043,82.56 137.376,82.8933 137.5,83.5C 135.604,84.4656 133.604,84.7989 131.5,84.5C 131.373,74.2177 128.373,64.8843 122.5,56.5C 123.022,61.2406 124.522,65.9073 127,70.5C 127.495,72.4727 127.662,74.4727 127.5,76.5C 126.558,73.3448 125.224,70.3448 123.5,67.5C 115.961,49.2908 102.628,37.9575 83.5,33.5C 79.1038,31.9669 74.4371,31.3002 69.5,31.5C 65.9825,31.5016 62.6491,31.8349 59.5,32.5C 59.1667,32.5 58.8333,32.5 58.5,32.5C 54.0845,32.8606 50.0845,34.1939 46.5,36.5C 43.0078,37.4097 40.0078,39.0764 37.5,41.5C 31.5517,44.4481 26.885,48.7815 23.5,54.5C 19.5832,57.9879 16.9166,62.3212 15.5,67.5C 14.1667,70.5 12.8333,73.5 11.5,76.5C 11.6602,74.8008 11.4935,73.1341 11,71.5C 10.3109,72.3567 9.47758,73.0233 8.5,73.5C 7.70631,78.6535 7.03964,83.8201 6.5,89C 5.93243,91.8644 4.43243,92.6978 2,91.5C 1.33333,86.5 1.33333,81.5 2,76.5C 2.27842,75.5842 2.77842,74.9175 3.5,74.5C 2.32128,79.8283 2.32128,85.1616 3.5,90.5C 6.99131,56.1861 25.3246,34.6861 58.5,26C 91.7482,23.0371 115.582,36.5371 130,66.5C 131.933,71.6948 133.267,77.0281 134,82.5C 134.977,83.7736 135.811,83.7736 136.5,82.5 Z"/></g>
<g><path style="opacity:1" fill="#d86e66" d="M 136.5,82.5 C 135.811,83.7736 134.977,83.7736 134,82.5C 133.267,77.0281 131.933,71.6948 130,66.5C 115.582,36.5371 91.7482,23.0371 58.5,26C 25.3246,34.6861 6.99131,56.1861 3.5,90.5C 2.32128,85.1616 2.32128,79.8283 3.5,74.5C 16.4005,36.7822 42.7338,19.9489 82.5,24C 113.205,31.8684 131.205,51.3684 136.5,82.5 Z"/></g>
<g><path style="opacity:1" fill="#dd6a61" d="M 37.5,41.5 C 32.8594,45.8052 28.1927,50.1386 23.5,54.5C 26.885,48.7815 31.5517,44.4481 37.5,41.5 Z"/></g>
<g><path style="opacity:1" fill="#df776e" d="M 58.5,32.5 C 54.767,34.411 50.767,35.7444 46.5,36.5C 50.0845,34.1939 54.0845,32.8606 58.5,32.5 Z"/></g>
<g><path style="opacity:1" fill="#df766e" d="M 59.5,32.5 C 62.6491,31.8349 65.9825,31.5016 69.5,31.5C 74.4371,31.3002 79.1038,31.9669 83.5,33.5C 75.5246,32.7237 67.5246,32.3903 59.5,32.5 Z"/></g>
<g><path style="opacity:1" fill="#e06b60" d="M 76.5,61.5 C 80.6533,61.2355 83.9867,62.5688 86.5,65.5C 83.0111,64.342 79.6777,63.0086 76.5,61.5 Z"/></g>
<g><path style="opacity:1" fill="#de7269" d="M 95.5,76.5 C 97.6138,77.784 98.6138,79.784 98.5,82.5C 97.1302,80.7496 96.1302,78.7496 95.5,76.5 Z"/></g>
<g><path style="opacity:1" fill="#de6259" d="M 123.5,67.5 C 125.224,70.3448 126.558,73.3448 127.5,76.5C 127.5,77.8333 127.5,79.1667 127.5,80.5C 127.5,81.5 127.5,82.5 127.5,83.5C 117.833,83.5 108.167,83.5 98.5,83.5C 98.5,83.1667 98.5,82.8333 98.5,82.5C 107.5,82.5 116.5,82.5 125.5,82.5C 125.706,77.3457 125.039,72.3457 123.5,67.5 Z"/></g>
<g><path style="opacity:1" fill="#9c9c9c" d="M 67.5,82.5 C 71.2865,82.3932 74.2865,83.8932 76.5,87C 101.164,87.5 125.831,87.6666 150.5,87.5C 150.5,89.1667 150.5,90.8333 150.5,92.5C 125.831,92.3334 101.164,92.5 76.5,93C 69.8917,99.7478 65.2251,98.7478 62.5,90C 62.7815,86.5559 64.4482,84.0559 67.5,82.5 Z"/></g>
<g><path style="opacity:1" fill="#e1928b" d="M 127.5,80.5 C 128.434,81.5676 128.768,82.901 128.5,84.5C 118.319,84.8274 108.319,84.494 98.5,83.5C 108.167,83.5 117.833,83.5 127.5,83.5C 127.5,82.5 127.5,81.5 127.5,80.5 Z"/></g>
<g><path style="opacity:1" fill="#de5e55" d="M 15.5,67.5 C 13.991,74.4098 12.991,81.4098 12.5,88.5C 21.5,88.5 30.5,88.5 39.5,88.5C 30.3483,89.4936 21.015,89.8269 11.5,89.5C 11.5,86.8333 11.5,84.1667 11.5,81.5C 11.5,79.8333 11.5,78.1667 11.5,76.5C 12.8333,73.5 14.1667,70.5 15.5,67.5 Z"/></g>
<g><path style="opacity:1" fill="#df8a82" d="M 11.5,81.5 C 11.5,84.1667 11.5,86.8333 11.5,89.5C 21.015,89.8269 30.3483,89.4936 39.5,88.5C 39.3284,87.5084 39.6618,86.8417 40.5,86.5C 40.5,87.8333 40.5,89.1667 40.5,90.5C 30.5,90.5 20.5,90.5 10.5,90.5C 10.19,87.2869 10.5233,84.2869 11.5,81.5 Z"/></g>
</svg>
