<?xml version="1.0" encoding="UTF-8"?>
<!DOCTYPE svg PUBLIC "-//W3C//DTD SVG 1.1//EN" "http://www.w3.org/Graphics/SVG/1.1/DTD/svg11.dtd">
<svg xmlns="http://www.w3.org/2000/svg" version="1.1" width="152px" height="111px" style="shape-rendering:geometricPrecision; text-rendering:geometricPrecision; image-rendering:optimizeQuality; fill-rule:evenodd; clip-rule:evenodd" xmlns:xlink="http://www.w3.org/1999/xlink">
<g><path style="opacity:1" fill="#fbfafb" d="M -0.5,-0.5 C 50.1667,-0.5 100.833,-0.5 151.5,-0.5C 151.5,36.5 151.5,73.5 151.5,110.5C 100.833,110.5 50.1667,110.5 -0.5,110.5C -0.5,73.5 -0.5,36.5 -0.5,-0.5 Z"/></g>
<g><path style="opacity:1" fill="#fffce2" d="M 90.5,23.5 C 81.9152,21.9216 73.2485,21.2549 64.5,21.5C 66.5706,20.1914 69.0706,19.5248 72,19.5C 74.5,19.6667 77,19.8333 79.5,20C 83.3404,20.9586 87.0071,22.1253 90.5,23.5 Z"/></g>
<g><path style="opacity:1" fill="#fefce3" d="M 64.5,21.5 C 57.7752,22.793 51.1085,24.793 44.5,27.5C 45.305,25.7872 46.305,24.1206 47.5,22.5C 48.6074,23.0219 49.7741,23.3552 51,23.5C 55.3464,21.8311 59.8464,21.1645 64.5,21.5 Z"/></g>
<g><path style="opacity:1" fill="#9d9c9c" d="M 86.5,63.5 C 93.9799,53.8872 100.98,43.8872 107.5,33.5C 110.645,29.2341 113.812,24.9008 117,20.5C 118.074,21.6184 119.24,22.6184 120.5,23.5C 106.624,44.0867 92.6236,64.5867 78.5,85C 81.1494,93.3847 78.1494,97.0514 69.5,96C 64.6357,91.9654 64.3024,87.632 68.5,83C 70.9803,82.04 73.4803,81.2066 76,80.5C 79.7518,74.9309 83.2518,69.2642 86.5,63.5 Z"/></g>
<g><path style="opacity:1" fill="#fdf8cc" d="M 94.5,24.5 C 98.0395,25.0027 101.373,26.0027 104.5,27.5C 105.72,29.2837 105.72,30.9504 104.5,32.5C 104.67,31.1779 104.337,30.0113 103.5,29C 100.128,27.9811 97.1284,26.4811 94.5,24.5 Z"/></g>
<g><path style="opacity:1" fill="#fdce10" d="M 80.5,31.5 C 84.5457,31.9521 88.5457,32.6187 92.5,33.5C 94.4561,34.4918 96.4561,35.4918 98.5,36.5C 98.8333,36.5 99.1667,36.5 99.5,36.5C 99.3713,38.2161 99.038,39.8828 98.5,41.5C 95.3314,43.6778 93.3314,46.6778 92.5,50.5C 90.7376,51.2623 89.7376,52.5956 89.5,54.5C 88.197,56.1423 86.8637,57.8089 85.5,59.5C 76.8078,59.1686 68.1411,59.502 59.5,60.5C 57.4269,62.2032 55.0936,63.3699 52.5,64C 53.2524,64.6708 53.5858,65.5041 53.5,66.5C 51.4202,68.5732 49.7536,70.9066 48.5,73.5C 46.127,75.5792 44.7936,78.2459 44.5,81.5C 42.087,82.6798 41.087,84.6798 41.5,87.5C 32.8333,87.5 24.1667,87.5 15.5,87.5C 15.4672,83.1311 15.8005,78.7978 16.5,74.5C 18.8315,69.1878 21.1648,63.8544 23.5,58.5C 24.1098,57.609 24.4431,56.609 24.5,55.5C 24.8333,54.8333 25.1667,54.1667 25.5,53.5C 26.8333,52.8333 27.8333,51.8333 28.5,50.5C 30.1667,49.5 31.5,48.1667 32.5,46.5C 32.3284,45.5084 32.6618,44.8417 33.5,44.5C 36.5296,41.9855 39.863,39.9855 43.5,38.5C 48.7175,38.2516 53.0508,36.2516 56.5,32.5C 57.5,32.5 58.5,32.5 59.5,32.5C 66.4648,31.6591 73.4648,31.3257 80.5,31.5 Z"/></g>
<g><path style="opacity:1" fill="#fffcd7" d="M 36.5,31.5 C 34.1401,33.8532 31.4735,35.8532 28.5,37.5C 29.9766,34.0656 32.6433,32.0656 36.5,31.5 Z"/></g>
<g><path style="opacity:1" fill="#fbfaf3" d="M 86.5,26.5 C 89.5739,26.8726 92.5739,27.5392 95.5,28.5C 95.9731,29.9063 96.9731,30.573 98.5,30.5C 100.315,31.6298 102.315,32.2964 104.5,32.5C 105.72,30.9504 105.72,29.2837 104.5,27.5C 105.496,27.4142 106.329,27.7476 107,28.5C 107.494,30.1341 107.66,31.8008 107.5,33.5C 100.98,43.8872 93.9799,53.8872 86.5,63.5C 84.2646,63.7947 82.2646,63.4614 80.5,62.5C 82.7812,62.9227 84.4479,62.256 85.5,60.5C 85.5,60.1667 85.5,59.8333 85.5,59.5C 86.8637,57.8089 88.197,56.1423 89.5,54.5C 91.2624,53.7377 92.2624,52.4044 92.5,50.5C 96.0915,48.5728 98.0915,45.5728 98.5,41.5C 100.597,40.1214 100.93,38.4547 99.5,36.5C 99.1667,36.5 98.8333,36.5 98.5,36.5C 97.3126,34.0246 95.3126,33.0246 92.5,33.5C 90.9749,31.9642 88.9749,30.9642 86.5,30.5C 74.3414,28.7993 62.3414,29.4659 50.5,32.5C 49.2299,33.2876 48.2299,34.2876 47.5,35.5C 44.7562,35.2479 42.2562,35.9145 40,37.5C 39.5,37.1667 39,36.8333 38.5,36.5C 39.1925,35.4822 39.8592,34.4822 40.5,33.5C 40.8417,32.6618 41.5084,32.3284 42.5,32.5C 45.1048,32.3794 47.1048,31.3794 48.5,29.5C 52.0443,29.8676 55.0443,28.8676 57.5,26.5C 58.1667,26.5 58.8333,26.5 59.5,26.5C 68.5,25.1667 77.5,25.1667 86.5,26.5 Z"/></g>
<g><path style="opacity:1" fill="#fef4b8" d="M 92.5,33.5 C 95.3126,33.0246 97.3126,34.0246 98.5,36.5C 96.4561,35.4918 94.4561,34.4918 92.5,33.5 Z"/></g>
<g><path style="opacity:1" fill="#fffacb" d="M 92.5,33.5 C 88.5457,32.6187 84.5457,31.9521 80.5,31.5C 77.6862,30.8353 74.6862,30.502 71.5,30.5C 67.2032,30.2783 63.2032,30.945 59.5,32.5C 58.5,32.5 57.5,32.5 56.5,32.5C 53.345,32.9769 50.345,33.9769 47.5,35.5C 48.2299,34.2876 49.2299,33.2876 50.5,32.5C 62.3414,29.4659 74.3414,28.7993 86.5,30.5C 88.9749,30.9642 90.9749,31.9642 92.5,33.5 Z"/></g>
<g><path style="opacity:1" fill="#f2d251" d="M 64.5,21.5 C 73.2485,21.2549 81.9152,21.9216 90.5,23.5C 91.5676,24.4345 92.901,24.7678 94.5,24.5C 97.1284,26.4811 100.128,27.9811 103.5,29C 104.337,30.0113 104.67,31.1779 104.5,32.5C 102.315,32.2964 100.315,31.6298 98.5,30.5C 98.0269,29.0937 97.0269,28.427 95.5,28.5C 92.5739,27.5392 89.5739,26.8726 86.5,26.5C 85.7375,25.7321 84.7375,25.2321 83.5,25C 76.5,24.3333 69.5,24.3333 62.5,25C 61.2625,25.2321 60.2625,25.7321 59.5,26.5C 58.8333,26.5 58.1667,26.5 57.5,26.5C 54.145,26.6896 51.145,27.6896 48.5,29.5C 46.0326,29.7549 44.0326,30.7549 42.5,32.5C 41.5084,32.3284 40.8417,32.6618 40.5,33.5C 34.5789,36.3007 29.5789,40.3007 25.5,45.5C 23.4131,46.5846 22.0798,48.2512 21.5,50.5C 15.4405,56.9545 11.7739,64.6211 10.5,73.5C 9.77842,73.9175 9.27842,74.5842 9,75.5C 8.50204,78.4816 8.33537,81.4816 8.5,84.5C 7.73209,85.2625 7.23209,86.2625 7,87.5C 6.50335,85.1902 6.33669,82.8568 6.5,80.5C 6.5,77.8333 6.5,75.1667 6.5,72.5C 8.07855,69.7 9.41188,66.7 10.5,63.5C 11.9483,58.3867 14.2816,53.72 17.5,49.5C 20.5725,47.4309 22.9059,44.7642 24.5,41.5C 25.8333,40.1667 27.1667,38.8333 28.5,37.5C 31.4735,35.8532 34.1401,33.8532 36.5,31.5C 39.395,30.6006 42.0616,29.2672 44.5,27.5C 51.1085,24.793 57.7752,22.793 64.5,21.5 Z"/></g>
<g><path style="opacity:1" fill="#f3d351" d="M 80.5,31.5 C 73.4648,31.3257 66.4648,31.6591 59.5,32.5C 63.2032,30.945 67.2032,30.2783 71.5,30.5C 74.6862,30.502 77.6862,30.8353 80.5,31.5 Z"/></g>
<g><path style="opacity:1" fill="#fff9bd" d="M 48.5,29.5 C 47.1048,31.3794 45.1048,32.3794 42.5,32.5C 44.0326,30.7549 46.0326,29.7549 48.5,29.5 Z"/></g>
<g><path style="opacity:1" fill="#fdf4a5" d="M 95.5,28.5 C 97.0269,28.427 98.0269,29.0937 98.5,30.5C 96.9731,30.573 95.9731,29.9063 95.5,28.5 Z"/></g>
<g><path style="opacity:1" fill="#fff9c6" d="M 57.5,26.5 C 55.0443,28.8676 52.0443,29.8676 48.5,29.5C 51.145,27.6896 54.145,26.6896 57.5,26.5 Z"/></g>
<g><path style="opacity:1" fill="#fef6b4" d="M 86.5,26.5 C 77.5,25.1667 68.5,25.1667 59.5,26.5C 60.2625,25.7321 61.2625,25.2321 62.5,25C 69.5,24.3333 76.5,24.3333 83.5,25C 84.7375,25.2321 85.7375,25.7321 86.5,26.5 Z"/></g>
<g><path style="opacity:1" fill="#f6d348" d="M 56.5,32.5 C 53.0508,36.2516 48.7175,38.2516 43.5,38.5C 44.5903,37.1429 45.9236,36.1429 47.5,35.5C 50.345,33.9769 53.345,32.9769 56.5,32.5 Z"/></g>
<g><path style="opacity:1" fill="#fefbe4" d="M 40.5,33.5 C 39.8592,34.4822 39.1925,35.4822 38.5,36.5C 39,36.8333 39.5,37.1667 40,37.5C 42.2562,35.9145 44.7562,35.2479 47.5,35.5C 45.9236,36.1429 44.5903,37.1429 43.5,38.5C 39.863,39.9855 36.5296,41.9855 33.5,44.5C 33.5852,43.0047 32.9185,42.0047 31.5,41.5C 29.736,43.2776 27.736,44.6109 25.5,45.5C 29.5789,40.3007 34.5789,36.3007 40.5,33.5 Z"/></g>
<g><path style="opacity:1" fill="#d6d6d7" d="M 114.5,37.5 C 121.861,42.3635 127.694,48.6968 132,56.5C 137.489,66.7875 140.322,77.7875 140.5,89.5C 139.5,89.5 138.5,89.5 137.5,89.5C 137.534,69.5764 130.034,53.2431 115,40.5C 114.517,39.552 114.351,38.552 114.5,37.5 Z"/></g>
<g><path style="opacity:1" fill="#fcf0ab" d="M 99.5,36.5 C 100.93,38.4547 100.597,40.1214 98.5,41.5C 99.038,39.8828 99.3713,38.2161 99.5,36.5 Z"/></g>
<g><path style="opacity:1" fill="#fced9d" d="M 24.5,41.5 C 22.9059,44.7642 20.5725,47.4309 17.5,49.5C 19.0941,46.2358 21.4275,43.5691 24.5,41.5 Z"/></g>
<g><path style="opacity:1" fill="#d1d2d4" d="M 110.5,44.5 C 124.217,56.2726 131.217,71.2726 131.5,89.5C 121.5,89.5 111.5,89.5 101.5,89.5C 101.855,81.7175 99.5213,74.8842 94.5,69C 99.7132,60.7362 105.047,52.5695 110.5,44.5 Z"/></g>
<g><path style="opacity:1" fill="#fffac2" d="M 25.5,45.5 C 24.9202,47.7488 23.5869,49.4154 21.5,50.5C 22.0798,48.2512 23.4131,46.5846 25.5,45.5 Z"/></g>
<g><path style="opacity:1" fill="#fbe889" d="M 32.5,46.5 C 31.5,48.1667 30.1667,49.5 28.5,50.5C 28.8333,48.1667 30.1667,46.8333 32.5,46.5 Z"/></g>
<g><path style="opacity:1" fill="#fff6c2" d="M 98.5,41.5 C 98.0915,45.5728 96.0915,48.5728 92.5,50.5C 93.3314,46.6778 95.3314,43.6778 98.5,41.5 Z"/></g>
<g><path style="opacity:1" fill="#fff3ad" d="M 28.5,50.5 C 27.8333,51.8333 26.8333,52.8333 25.5,53.5C 25.5,51.5 26.5,50.5 28.5,50.5 Z"/></g>
<g><path style="opacity:1" fill="#fff8ba" d="M 92.5,50.5 C 92.2624,52.4044 91.2624,53.7377 89.5,54.5C 89.7376,52.5956 90.7376,51.2623 92.5,50.5 Z"/></g>
<g><path style="opacity:1" fill="#f6d03b" d="M 85.5,59.5 C 85.5,59.8333 85.5,60.1667 85.5,60.5C 78.6053,60.5576 71.6053,60.7242 64.5,61C 63.5842,61.2784 62.9175,61.7784 62.5,62.5C 61.8333,62.5 61.1667,62.5 60.5,62.5C 58.9731,62.427 57.9731,63.0937 57.5,64.5C 55.9382,64.7329 54.6049,65.3995 53.5,66.5C 53.5858,65.5041 53.2524,64.6708 52.5,64C 55.0936,63.3699 57.4269,62.2032 59.5,60.5C 68.1411,59.502 76.8078,59.1686 85.5,59.5 Z"/></g>
<g><path style="opacity:1" fill="#fbe98b" d="M 24.5,55.5 C 24.4431,56.609 24.1098,57.609 23.5,58.5C 22.7281,59.6935 21.7281,60.6935 20.5,61.5C 20.8449,58.8021 22.1782,56.8021 24.5,55.5 Z"/></g>
<g><path style="opacity:1" fill="#fffbcd" d="M 85.5,60.5 C 84.4479,62.256 82.7812,62.9227 80.5,62.5C 74.5518,61.3126 68.5518,61.3126 62.5,62.5C 62.9175,61.7784 63.5842,61.2784 64.5,61C 71.6053,60.7242 78.6053,60.5576 85.5,60.5 Z"/></g>
<g><path style="opacity:1" fill="#f6cf35" d="M 23.5,58.5 C 21.1648,63.8544 18.8315,69.1878 16.5,74.5C 16.5,73.8333 16.5,73.1667 16.5,72.5C 16.9841,68.5304 18.3175,64.8637 20.5,61.5C 21.7281,60.6935 22.7281,59.6935 23.5,58.5 Z"/></g>
<g><path style="opacity:1" fill="#fdf1a0" d="M 60.5,62.5 C 60.0269,63.9063 59.0269,64.573 57.5,64.5C 57.9731,63.0937 58.9731,62.427 60.5,62.5 Z"/></g>
<g><path style="opacity:1" fill="#fdfbee" d="M 33.5,44.5 C 32.6618,44.8417 32.3284,45.5084 32.5,46.5C 30.1667,46.8333 28.8333,48.1667 28.5,50.5C 26.5,50.5 25.5,51.5 25.5,53.5C 25.1667,54.1667 24.8333,54.8333 24.5,55.5C 22.1782,56.8021 20.8449,58.8021 20.5,61.5C 18.3175,64.8637 16.9841,68.5304 16.5,72.5C 15.2101,73.0577 14.3768,74.0577 14,75.5C 13.6227,79.0187 13.1227,82.5187 12.5,86C 12.6448,87.2259 12.9781,88.3926 13.5,89.5C 23.3254,90.8225 32.992,90.8225 42.5,89.5C 43.1667,87.8333 43.8333,86.1667 44.5,84.5C 44.8333,84.5 45.1667,84.5 45.5,84.5C 45.2739,87.2492 45.6072,89.9159 46.5,92.5C 45.6518,94.2828 44.3185,94.7828 42.5,94C 43.1667,93.3333 43.8333,92.6667 44.5,92C 33.505,91.5002 22.505,91.3335 11.5,91.5C 11.6653,87.8183 11.4986,84.1516 11,80.5C 10.6174,81.056 10.1174,81.3893 9.5,81.5C 9.83333,78.8333 10.1667,76.1667 10.5,73.5C 11.7739,64.6211 15.4405,56.9545 21.5,50.5C 23.5869,49.4154 24.9202,47.7488 25.5,45.5C 27.736,44.6109 29.736,43.2776 31.5,41.5C 32.9185,42.0047 33.5852,43.0047 33.5,44.5 Z"/></g>
<g><path style="opacity:1" fill="#fef6b9" d="M 10.5,63.5 C 9.41188,66.7 8.07855,69.7 6.5,72.5C 6.51354,68.7494 7.84687,65.7494 10.5,63.5 Z"/></g>
<g><path style="opacity:1" fill="#fff9bf" d="M 57.5,64.5 C 54.8333,67.8333 51.8333,70.8333 48.5,73.5C 49.7536,70.9066 51.4202,68.5732 53.5,66.5C 54.6049,65.3995 55.9382,64.7329 57.5,64.5 Z"/></g>
<g><path style="opacity:1" fill="#fef4ad" d="M 6.5,72.5 C 6.5,75.1667 6.5,77.8333 6.5,80.5C 5.52693,82.9479 5.1936,85.6146 5.5,88.5C 4.35615,83.112 4.68949,77.7787 6.5,72.5 Z"/></g>
<g><path style="opacity:1" fill="#fffacb" d="M 48.5,73.5 C 47.6115,77.2157 46.6115,80.8823 45.5,84.5C 45.1667,84.5 44.8333,84.5 44.5,84.5C 44.5,83.5 44.5,82.5 44.5,81.5C 44.7936,78.2459 46.127,75.5792 48.5,73.5 Z"/></g>
<g><path style="opacity:1" fill="#fef9ca" d="M 10.5,73.5 C 10.1667,76.1667 9.83333,78.8333 9.5,81.5C 9.80155,84.0593 9.46822,86.3926 8.5,88.5C 8.5,87.1667 8.5,85.8333 8.5,84.5C 8.33537,81.4816 8.50204,78.4816 9,75.5C 9.27842,74.5842 9.77842,73.9175 10.5,73.5 Z"/></g>
<g><path style="opacity:1" fill="#edd467" d="M 6.5,80.5 C 6.33669,82.8568 6.50335,85.1902 7,87.5C 7.23209,86.2625 7.73209,85.2625 8.5,84.5C 8.5,85.8333 8.5,87.1667 8.5,88.5C 7.5,89.8333 6.5,89.8333 5.5,88.5C 5.1936,85.6146 5.52693,82.9479 6.5,80.5 Z"/></g>
<g><path style="opacity:1" fill="#f4d045" d="M 16.5,74.5 C 15.8005,78.7978 15.4672,83.1311 15.5,87.5C 24.1667,87.5 32.8333,87.5 41.5,87.5C 41.087,84.6798 42.087,82.6798 44.5,81.5C 44.5,82.5 44.5,83.5 44.5,84.5C 43.8333,86.1667 43.1667,87.8333 42.5,89.5C 33.1667,89.5 23.8333,89.5 14.5,89.5C 14.3345,85.4862 14.5012,81.4862 15,77.5C 15.2321,76.2625 15.7321,75.2625 16.5,74.5 Z"/></g>
<g><path style="opacity:1" fill="#fefac0" d="M 16.5,72.5 C 16.5,73.1667 16.5,73.8333 16.5,74.5C 15.7321,75.2625 15.2321,76.2625 15,77.5C 14.5012,81.4862 14.3345,85.4862 14.5,89.5C 23.8333,89.5 33.1667,89.5 42.5,89.5C 32.992,90.8225 23.3254,90.8225 13.5,89.5C 12.9781,88.3926 12.6448,87.2259 12.5,86C 13.1227,82.5187 13.6227,79.0187 14,75.5C 14.3768,74.0577 15.2101,73.0577 16.5,72.5 Z"/></g>
</svg>
