<svg width="56" height="56" viewBox="0 0 56 56" fill="none" xmlns="http://www.w3.org/2000/svg">
<path d="M28 0C12.536 0 0 12.536 0 28C0 43.464 12.536 56 28 56C43.464 56 56 43.464 56 28C56 12.536 43.464 0 28 0ZM28 52.5C14.469 52.5 3.5 41.531 3.5 28C3.5 14.469 14.469 3.5 28 3.5C41.531 3.5 52.5 14.469 52.5 28C52.5 41.531 41.531 52.5 28 52.5Z" fill="#FED402"/>
<path d="M19.25 22.75C21.183 22.75 22.75 21.183 22.75 19.25C22.75 17.317 21.183 15.75 19.25 15.75C17.317 15.75 15.75 17.317 15.75 19.25C15.75 21.183 17.317 22.75 19.25 22.75Z" fill="#FED402"/>
<path d="M36.75 22.75C38.683 22.75 40.25 21.183 40.25 19.25C40.25 17.317 38.683 15.75 36.75 15.75C34.817 15.75 33.25 17.317 33.25 19.25C33.25 21.183 34.817 22.75 36.75 22.75Z" fill="#FED402"/>
<path d="M40.25 33.25H15.75V36.75H40.25V33.25Z" fill="#FED402"/>
</svg>
