<svg width="56" height="57" viewBox="0 0 56 57" fill="none" xmlns="http://www.w3.org/2000/svg">
<path d="M47.8093 8.19523C36.8858 -2.7313 19.1135 -2.7313 8.19209 8.19259C-2.7314 19.1165 -2.73035 36.8926 8.19315 47.8186C19.1135 58.7419 36.8858 58.7419 47.8082 47.8164C58.7307 36.8926 58.7301 19.1175 47.8093 8.19523ZM44.7526 44.7614C35.5156 54.0001 20.4852 54.0011 11.2477 44.7624C2.00855 35.5221 2.00961 20.4874 11.2477 11.2487C20.4847 2.01057 35.5146 2.00951 44.7537 11.2498C53.9907 20.4885 53.9897 35.5232 44.7526 44.7614ZM40.6658 39.0805C41.0133 39.8838 40.6437 40.8159 39.8411 41.1628C39.038 41.5114 38.106 41.1407 37.7586 40.3379C36.2311 36.8054 32.6211 34.5224 28.5601 34.5224C24.4057 34.5224 20.7735 36.8033 19.3083 40.3337C19.0554 40.9431 18.4656 41.3112 17.8452 41.3112C17.6424 41.3112 17.437 41.2721 17.238 41.1898C16.4301 40.8539 16.0473 39.9265 16.3826 39.1191C18.3415 34.402 23.1221 31.3543 28.5601 31.3543C33.8846 31.3543 38.6367 34.3867 40.6658 39.0805ZM17.5511 20.4225C17.5511 18.6143 19.0174 17.1477 20.8253 17.1477C22.6327 17.1477 24.099 18.6137 24.099 20.4225C24.099 22.2318 22.6327 23.6978 20.8253 23.6978C19.0174 23.6978 17.5511 22.2318 17.5511 20.4225ZM32.3972 20.4225C32.3972 18.6143 33.8645 17.1477 35.6724 17.1477C37.4798 17.1477 38.9461 18.6137 38.9461 20.4225C38.9461 22.2318 37.4803 23.6978 35.6724 23.6978C33.8645 23.6978 32.3972 22.2318 32.3972 20.4225Z" fill="#FD8087"/>
</svg>
